<svg xmlns="http://www.w3.org/2000/svg" width="3026" height="710" fill="none"><path fill="#212121" d="m329.9 448.232 143.434-315.555v458.99H14.344z"/><path fill="#8566FF" d="M143.434 261.768 0 577.323v-458.99h458.99zM876.595 412.84q3.236 23.344 12.712 34.9 17.334 21.031 59.398 21.031 25.192 0 40.908-5.546 29.816-10.632 29.817-39.522 0-16.872-14.79-26.116-14.797-9.014-46.459-15.948l-36.055-8.089q-53.157-12.018-73.496-26.116-34.437-23.575-34.437-73.728 0-45.761 33.281-76.038t97.764-30.277c35.901 0 66.482 9.553 91.752 28.659 25.43 18.952 38.75 46.532 39.99 82.741h-68.42q-1.845-30.739-26.805-43.682-16.64-8.551-41.371-8.551-27.503 0-43.912 11.094-16.41 11.094-16.41 30.97 0 18.258 16.179 27.272 10.4 6.009 44.375 14.098l58.704 14.099c25.73 6.163 45.15 14.406 58.24 24.729q30.51 24.037 30.51 69.567 0 46.687-35.82 77.657-35.595 30.739-100.772 30.739-66.562 0-104.697-30.277-38.135-30.508-38.135-83.666zm371.875 58.705q28.89 0 44.37-20.57c10.33-13.713 15.49-33.204 15.49-58.473s-5.16-44.683-15.49-58.242q-15.48-20.57-44.37-20.57t-44.61 20.57q-15.48 20.339-15.48 58.242 0 37.904 15.48 58.473 15.72 20.57 44.61 20.57m128.96-79.043q0 55.469-31.89 94.99-31.905 39.291-96.84 39.291-64.95 0-96.84-39.291c-21.26-26.347-31.9-58.011-31.9-94.99 0-36.363 10.64-67.872 31.9-94.528q31.89-39.984 96.84-39.984 64.935 0 96.84 39.984 31.89 39.984 31.89 94.528m113.02-126.423v151.846c0 14.33 1.69 25.115 5.08 32.357q9.015 19.183 35.37 19.183c22.49 0 37.9-9.091 46.22-27.272 4.31-9.861 6.47-22.881 6.47-39.06V266.079h66.79V518h-64.02v-35.592q-.915 1.155-4.62 6.933a46.2 46.2 0 0 1-8.78 10.169c-10.32 9.245-20.34 15.562-30.05 18.952-9.55 3.39-20.8 5.085-33.74 5.085-37.29 0-62.4-13.405-75.34-40.215-7.25-14.792-10.87-36.594-10.87-65.407V266.079zM1781.43 518h-65.87V177.329h65.87z"/><path fill="#000" d="M1902.77 412.84c2.15 15.563 6.39 27.196 12.71 34.9q17.325 21.031 59.4 21.031c16.79 0 30.43-1.848 40.9-5.546q29.82-10.632 29.82-39.522 0-16.872-14.79-26.116c-9.86-6.01-25.35-11.325-46.46-15.948l-36.05-8.089q-53.16-12.018-73.5-26.116-34.44-23.575-34.44-73.728c0-30.507 11.1-55.854 33.29-76.038 22.18-20.184 54.77-30.277 97.76-30.277 35.9 0 66.49 9.553 91.75 28.659q38.145 28.428 39.99 82.741h-68.41c-1.24-20.493-10.17-35.053-26.81-43.682q-16.65-8.551-41.37-8.551-27.51 0-43.92 11.094t-16.41 30.97c0 12.172 5.4 21.263 16.18 27.272 6.94 4.006 21.73 8.705 44.38 14.098l58.7 14.099c25.73 6.163 45.15 14.406 58.24 24.729q30.51 24.037 30.51 69.567 0 46.687-35.82 77.657-35.595 30.739-100.77 30.739-66.555 0-104.7-30.277-38.13-30.508-38.13-83.666zm232.97-97.532v-46.917h35.13V198.13h65.17v70.261h40.91v46.917h-40.91v133.125q0 15.485 3.93 19.414c2.62 2.465 10.63 3.698 24.04 3.698h6.24c2.31-.154 4.54-.308 6.7-.462v49.228l-31.2 1.156c-31.13 1.078-52.39-4.314-63.79-16.179-7.4-7.55-11.09-19.183-11.09-34.899V315.308zm296.52 156.237c19.26 0 34.05-6.857 44.38-20.57q15.48-20.57 15.48-58.473t-15.48-58.242c-10.33-13.713-25.12-20.57-44.38-20.57s-34.13 6.857-44.6 20.57c-10.33 13.559-15.49 32.973-15.49 58.242s5.16 44.76 15.49 58.473c10.47 13.713 25.34 20.57 44.6 20.57m128.97-79.043c0 36.979-10.63 68.643-31.9 94.99q-31.89 39.291-96.84 39.291-64.935 0-96.84-39.291-31.89-39.521-31.89-94.99 0-54.544 31.89-94.528 31.905-39.984 96.84-39.984 64.95 0 96.84 39.984c21.27 26.656 31.9 58.165 31.9 94.528m184.2-132.432q1.845 0 3 .231c.93 0 2.86.077 5.78.232v67.487c-4.16-.463-7.86-.771-11.09-.925q-4.86-.231-7.86-.231c-26.5 0-44.3 8.628-53.39 25.885q-7.62 14.56-7.62 44.838V518h-66.34V266.079h62.87v43.913q15.255-25.192 26.58-34.437c12.32-10.323 28.35-15.485 48.07-15.485m57.78 306.234 8.32.462c6.47.308 12.63.077 18.49-.693 5.85-.77 10.79-2.542 14.79-5.316 3.85-2.619 7.4-8.089 10.63-16.409 3.39-8.321 4.78-13.405 4.16-15.254l-92.44-263.015h73.26l55.01 185.821 52-185.821h70.03l-86.44 247.761c-16.64 47.765-29.82 77.348-39.52 88.75-9.71 11.556-29.12 17.334-58.24 17.334q-8.79 0-14.1-.231c-3.55 0-8.86-.231-15.95-.694z"/></svg>